<mxfile host="app.diagrams.net" agent="Mozilla/5.0 (Windows NT 10.0; Win64; x64; rv:129.0) Gecko/20100101 Firefox/129.0" version="24.7.14">
  <diagram name="Page-1" id="GhAFPALQknqoFs2C6mst">
    <mxGraphModel dx="989" dy="537" grid="1" gridSize="10" guides="1" tooltips="1" connect="1" arrows="1" fold="1" page="1" pageScale="1" pageWidth="827" pageHeight="1169" math="1" shadow="0">
      <root>
        <mxCell id="0" />
        <mxCell id="1" parent="0" />
        <mxCell id="K0NOnmqL0LqgCiX0yPDj-1" value="" style="endArrow=none;html=1;rounded=0;strokeWidth=3;" edge="1" parent="1">
          <mxGeometry width="50" height="50" relative="1" as="geometry">
            <mxPoint x="200" y="360" as="sourcePoint" />
            <mxPoint x="720" y="360" as="targetPoint" />
            <Array as="points">
              <mxPoint x="280" y="200" />
              <mxPoint x="400" y="200" />
            </Array>
          </mxGeometry>
        </mxCell>
        <mxCell id="K0NOnmqL0LqgCiX0yPDj-2" value="" style="endArrow=none;html=1;rounded=0;strokeWidth=3;" edge="1" parent="1">
          <mxGeometry width="50" height="50" relative="1" as="geometry">
            <mxPoint x="270" y="336" as="sourcePoint" />
            <mxPoint x="790" y="336" as="targetPoint" />
            <Array as="points">
              <mxPoint x="350" y="176" />
              <mxPoint x="470" y="176" />
            </Array>
          </mxGeometry>
        </mxCell>
        <mxCell id="K0NOnmqL0LqgCiX0yPDj-3" value="" style="endArrow=classic;startArrow=classic;html=1;rounded=0;fontColor=#FF8000;strokeColor=#FF8000;" edge="1" parent="1">
          <mxGeometry width="50" height="50" relative="1" as="geometry">
            <mxPoint x="280" y="310" as="sourcePoint" />
            <mxPoint x="280" y="210" as="targetPoint" />
          </mxGeometry>
        </mxCell>
        <mxCell id="K0NOnmqL0LqgCiX0yPDj-4" value="" style="endArrow=classic;startArrow=classic;html=1;rounded=0;fontColor=#FF8000;strokeColor=#FF8000;" edge="1" parent="1">
          <mxGeometry width="50" height="50" relative="1" as="geometry">
            <mxPoint x="678" y="336" as="sourcePoint" />
            <mxPoint x="678" y="283" as="targetPoint" />
          </mxGeometry>
        </mxCell>
        <mxCell id="K0NOnmqL0LqgCiX0yPDj-5" value="" style="endArrow=classic;startArrow=classic;html=1;rounded=0;" edge="1" parent="1">
          <mxGeometry width="50" height="50" relative="1" as="geometry">
            <mxPoint x="380" y="200" as="sourcePoint" />
            <mxPoint x="380" y="177" as="targetPoint" />
          </mxGeometry>
        </mxCell>
        <mxCell id="K0NOnmqL0LqgCiX0yPDj-6" value="" style="endArrow=none;dashed=1;html=1;rounded=0;" edge="1" parent="1">
          <mxGeometry width="50" height="50" relative="1" as="geometry">
            <mxPoint x="180" y="360" as="sourcePoint" />
            <mxPoint x="270" y="360" as="targetPoint" />
          </mxGeometry>
        </mxCell>
        <mxCell id="K0NOnmqL0LqgCiX0yPDj-7" value="" style="endArrow=none;dashed=1;html=1;rounded=0;" edge="1" parent="1">
          <mxGeometry width="50" height="50" relative="1" as="geometry">
            <mxPoint x="680" y="338" as="sourcePoint" />
            <mxPoint x="790" y="338" as="targetPoint" />
          </mxGeometry>
        </mxCell>
        <mxCell id="K0NOnmqL0LqgCiX0yPDj-9" value="" style="endArrow=classic;html=1;rounded=0;curved=1;strokeColor=#0000FF;" edge="1" parent="1">
          <mxGeometry width="50" height="50" relative="1" as="geometry">
            <mxPoint x="720" y="334" as="sourcePoint" />
            <mxPoint x="720" y="304" as="targetPoint" />
            <Array as="points">
              <mxPoint x="700" y="324" />
            </Array>
          </mxGeometry>
        </mxCell>
        <mxCell id="K0NOnmqL0LqgCiX0yPDj-10" value="" style="endArrow=classic;html=1;rounded=1;curved=0;strokeColor=#0000FF;" edge="1" parent="1">
          <mxGeometry width="50" height="50" relative="1" as="geometry">
            <mxPoint x="220" y="360" as="sourcePoint" />
            <mxPoint x="220" y="330" as="targetPoint" />
            <Array as="points">
              <mxPoint x="230" y="350" />
              <mxPoint x="230" y="340" />
            </Array>
          </mxGeometry>
        </mxCell>
        <mxCell id="K0NOnmqL0LqgCiX0yPDj-11" value="\(\sigma\)" style="text;html=1;align=center;verticalAlign=middle;whiteSpace=wrap;rounded=0;fontColor=#0000FF;" vertex="1" parent="1">
          <mxGeometry x="230" y="335" width="20" height="20" as="geometry" />
        </mxCell>
        <mxCell id="K0NOnmqL0LqgCiX0yPDj-12" value="\(\sigma\)" style="text;html=1;align=center;verticalAlign=middle;whiteSpace=wrap;rounded=0;fontColor=#0000FF;" vertex="1" parent="1">
          <mxGeometry x="690" y="310" width="20" height="20" as="geometry" />
        </mxCell>
        <mxCell id="K0NOnmqL0LqgCiX0yPDj-13" value="\(dh\)" style="text;html=1;align=center;verticalAlign=middle;whiteSpace=wrap;rounded=0;fontColor=#FF8000;strokeColor=none;" vertex="1" parent="1">
          <mxGeometry x="260" y="260" width="20" height="20" as="geometry" />
        </mxCell>
        <mxCell id="K0NOnmqL0LqgCiX0yPDj-14" value="\(dh\)" style="text;html=1;align=center;verticalAlign=middle;whiteSpace=wrap;rounded=0;fontColor=#FF8000;strokeColor=none;" vertex="1" parent="1">
          <mxGeometry x="657" y="298" width="20" height="20" as="geometry" />
        </mxCell>
        <mxCell id="K0NOnmqL0LqgCiX0yPDj-16" value="\(\tilde{dh}\)" style="text;html=1;align=center;verticalAlign=middle;whiteSpace=wrap;rounded=0;" vertex="1" parent="1">
          <mxGeometry x="388" y="173" width="26" height="30" as="geometry" />
        </mxCell>
        <mxCell id="K0NOnmqL0LqgCiX0yPDj-18" value="" style="endArrow=classic;startArrow=classic;html=1;rounded=0;" edge="1" parent="1">
          <mxGeometry width="50" height="50" relative="1" as="geometry">
            <mxPoint x="280" y="173" as="sourcePoint" />
            <mxPoint x="340" y="173" as="targetPoint" />
          </mxGeometry>
        </mxCell>
        <mxCell id="K0NOnmqL0LqgCiX0yPDj-20" value="\(B\)" style="text;html=1;align=center;verticalAlign=middle;whiteSpace=wrap;rounded=0;" vertex="1" parent="1">
          <mxGeometry x="300" y="143" width="26" height="30" as="geometry" />
        </mxCell>
      </root>
    </mxGraphModel>
  </diagram>
</mxfile>
